<?xml version="1.0" encoding="UTF-8"?>
<svg xmlns="http://www.w3.org/2000/svg" viewBox="0 0 865.01 972">
  <defs>
    <style>
      .cls-1 {
        fill: #000;
      }

      .cls-2 {
        fill: #fcde0b;
      }
    </style>
  </defs>
  <g id="Livello_5">
    <path class="cls-2" d="M822.45,226.13c-80.87-50.62-256.25-160.27-341.44-212.73-29.3-18.04-66.25-17.86-95.37.46L42.41,229.75C16.02,246.34,0,275.39,0,306.63v358.69c0,31.19,15.97,60.19,42.28,76.8l342.03,215.93c29.51,18.63,67.06,18.59,96.53-.11l342.06-217.01c26.22-16.63,42.11-45.58,42.11-76.7v-361.13c0-31.31-16.08-60.41-42.57-76.99ZM813.57,643.04c0,27.42-14,52.92-37.1,67.58l-301.38,191.2c-25.96,16.47-59.05,16.51-85.05.09l-301.35-190.24c-23.18-14.64-37.25-40.19-37.25-67.67v-316.03c0-27.53,14.11-53.12,37.36-67.74L391.21,70.02c25.66-16.14,58.22-16.3,84.03-.4,75.06,46.22,229.58,142.83,300.83,187.42,23.33,14.6,37.5,40.24,37.5,67.83v318.17Z"/>
  </g>
  <g id="API">
    <g>
      <path class="cls-1" d="M325.86,402.32l58.34,37.38c4.54,2.91,5.59,9.52,2.22,13.9l-120.15,156.35c-13.8,17.96-34.27,28.34-55.85,28.34h-78.33c-22.08,0-37.68-23.38-30.73-46.05l21.31-69.56c3.6-11.74,11.16-21.58,21.17-27.55l156.47-93.25c7.98-4.76,17.7-4.59,25.54.43Z"/>
      <path class="cls-1" d="M539.8,403.27l-58.34,37.38c-4.54,2.91-5.59,9.52-2.22,13.9l120.15,156.35c13.8,17.96,34.27,28.34,55.85,28.34h78.33c22.08,0,37.68-23.38,30.73-46.05l-21.31-69.56c-3.6-11.74-11.16-21.58-21.17-27.55l-156.47-93.25c-7.98-4.76-17.7-4.59-25.54.43Z"/>
      <polygon class="cls-1" points="518.41 290.99 434.26 235.83 434.26 235.79 434.23 235.81 434.2 235.79 434.2 235.83 350.04 290.99 350.04 370.07 434.2 434.87 434.2 434.92 434.23 434.89 434.26 434.92 434.26 434.87 518.41 370.07 518.41 290.99"/>
      <path class="cls-1" d="M370.09,247.97l20.18-14.89c2.76-2.03,3.24-6.62.98-9.41l-47.72-59.21c-5.76-7.15-15.26-7.29-21.16-.3l-4.59,5.44c-4.94,5.85-4.98,15.46,1.5,23.69l44.6,53.81c1.65,1.99,4.22,2.36,6.21.89Z"/>
      <path class="cls-1" d="M495.53,247.97l-20.27-14.89c-2.77-2.03-3.25-6.62-.99-9.41l47.93-59.21c5.79-7.15,15.33-7.29,21.26-.3l4.61,5.44c4.96,5.85,5,15.46-1.51,23.69l-44.79,53.81c-1.66,1.99-4.23,2.36-6.23.89Z"/>
      <polygon class="cls-1" points="528.82 593.55 338.33 593.55 390.8 523.01 477.8 523.01 528.82 593.55"/>
      <polygon class="cls-1" points="325.51 640.52 325.51 689.71 345.13 710.93 522.41 710.93 542.21 689.5 542.21 640.52 325.51 640.52"/>
      <polygon class="cls-1" points="386.85 760.71 483.76 760.71 434.28 823.68 386.85 760.71"/>
    </g>
  </g>
</svg>